<svg width="512" height="512" viewBox="0 0 512 512" fill="none" xmlns="http://www.w3.org/2000/svg">
<rect x="24" y="24" width="464" height="464" fill="#0A0E0C"/>
<path d="M458.667 480V512H53.3333V480H458.667ZM480 458.667V53.3333C480 41.5513 470.449 32 458.667 32H53.3333C41.5513 32 32 41.5513 32 53.3333V458.667C32 470.449 41.5513 480 53.3333 480V512L50.5885 511.932C22.4089 510.504 0 487.201 0 458.667V53.3333C5.49783e-06 23.8782 23.8782 0 53.3333 0H458.667C488.122 0 512 23.8781 512 53.3333V458.667C512 488.122 488.122 512 458.667 512V480C470.449 480 480 470.449 480 458.667Z" fill="white"/>
<path d="M94 145.75L102.036 130H142.214L198.464 334.75H214.536L270.786 130H310.964L319 145.75L246.679 382H166.321L94 145.75Z" fill="white"/>
<path d="M367.998 128L304 368L312.001 384L351.999 383.999L415.999 143.999L407.999 127.999L367.998 128Z" fill="white"/>
</svg>
